# xmcd
#
# Track frame offsets:
#	150
#	12312
#	22287
#	36087
#	46962
#	59265
#	71262
#	82290
#	94435
#	105015
#	118512
#	128415
#	143415
#	155487
#	166735
#
# Disc length: 2365
#
# Revision: 3
# Processed by: cddbd v1.5.1PL0 Copyright (c) Steve Scherf et al.
# Submitted via: audiograbber 1.80
# Normalized: r1:DSETVAR1,TDELIM( - ),TSWAP
#
DISCID=ba093b0f
DTITLE=Various Artist - Classic Rhythm and Blues Collection, 1955 1959, CD-1
DYEAR=1900
DGENRE=
TTITLE0=Jackie Wilson - Lonely Teardrops
TTITLE1=The Drifters - There Goes My Baby
TTITLE2=The Five Satins - In The Still Of The Nite
TTITLE3=Lloyd Price - Stagger Lee
TTITLE4=The Coasters - Searchin'
TTITLE5=Tommy Edwards - It's All In The Game
TTITLE6=Wilbert Harrison - Kansas City
TTITLE7=The Platters - The Great Pretender
TTITLE8=Franklin Lyman and The Teenagers - Why Do Fools Fall In Love
TTITLE9=The Penquins - Earth Angel
TTITLE10=Little Richard - Long Tall Sally
TTITLE11=The Flamingos - I Only Have Eyes For You
TTITLE12=Little Walter and His Jukes - My Babe
TTITLE13=Brook Benton - It's Just A Matter Of Time
TTITLE14=Shirley and Lee - Let The Good Times Roll
EXTD=
EXTT0=
EXTT1=
EXTT2=
EXTT3=
EXTT4=
EXTT5=
EXTT6=
EXTT7=
EXTT8=
EXTT9=
EXTT10=
EXTT11=
EXTT12=
EXTT13=
EXTT14=
PLAYORDER=
